<?xml version="1.0" standalone="no"?>
<!DOCTYPE svg PUBLIC "-//W3C//DTD SVG 20010904//EN"
 "http://www.w3.org/TR/2001/REC-SVG-20010904/DTD/svg10.dtd">
<svg version="1.0" xmlns="http://www.w3.org/2000/svg"
 width="396.000000pt" height="364.000000pt" viewBox="0 0 396.000000 364.000000"
 preserveAspectRatio="xMidYMid meet">
<metadata>
Created by potrace 1.15, written by Peter Selinger 2001-2017
</metadata>
<g transform="translate(0.000000,364.000000) scale(0.100000,-0.100000)"
fill="#000000" stroke="none">
<path d="M1577 3625 c-591 -81 -1106 -444 -1376 -970 -259 -503 -267 -1104
-20 -1610 258 -531 742 -893 1339 -1002 132 -24 448 -24 580 0 288 53 526 152
762 317 114 79 332 295 411 406 122 172 221 374 273 556 25 87 29 94 94 157
91 89 107 133 126 351 16 182 21 193 85 210 61 17 79 49 79 142 0 122 -19 135
-257 165 l-133 17 -11 36 c-25 77 -100 242 -148 325 -222 385 -581 682 -991
818 -263 88 -555 117 -813 82z m408 -155 c576 -66 1061 -409 1310 -925 30 -60
57 -122 60 -136 l6 -26 -218 -6 c-213 -5 -351 -19 -557 -56 -98 -18 -105 -18
-196 -1 -362 69 -755 77 -1130 24 -195 -27 -220 -47 -220 -168 0 -65 3 -78 25
-104 14 -17 39 -32 59 -36 58 -11 66 -29 77 -177 12 -164 22 -219 53 -284 33
-68 89 -122 166 -159 l65 -31 240 0 240 0 67 33 c96 47 147 108 225 272 134
281 180 341 248 324 53 -13 87 -68 224 -357 64 -133 136 -212 227 -248 53 -21
78 -24 251 -27 l192 -4 -30 -86 c-60 -174 -172 -374 -281 -504 -63 -76 -254
-157 -488 -209 -91 -21 -133 -24 -315 -24 -237 0 -338 15 -529 82 -791 273
-1239 1122 -1016 1923 75 266 206 494 399 693 127 131 145 143 256 173 186 49
401 65 590 44z m137 -1291 c57 -6 107 -15 112 -19 5 -5 -23 -29 -63 -55 -56
-36 -80 -60 -111 -109 -45 -72 -124 -148 -192 -188 -34 -19 -59 -46 -88 -92
-23 -36 -66 -88 -96 -116 -45 -40 -62 -50 -91 -50 -55 0 -109 20 -139 51 -26
28 -27 29 -10 48 10 11 44 37 76 57 40 25 69 54 93 93 44 68 123 146 194 190
35 22 63 50 84 84 40 66 88 117 111 117 9 0 64 -5 120 -11z m1489 -6 l27 -5
-31 -27 c-18 -15 -53 -40 -79 -56 -30 -19 -61 -51 -87 -91 -51 -77 -117 -143
-186 -185 -36 -22 -64 -50 -89 -89 -38 -60 -122 -150 -140 -150 -16 0 -63 46
-93 92 l-27 40 27 20 c15 11 44 46 63 77 50 78 98 126 176 177 49 32 76 58
103 101 21 32 49 71 64 87 l26 28 110 -7 c60 -3 121 -9 136 -12z"/>
</g>
</svg>
